<svg width="202" height="44" viewBox="0 0 202 44" fill="none" xmlns="http://www.w3.org/2000/svg">
		<path d="M5.59225 1.36816H0V42.0399H5.59225V1.36816Z" fill="#FFFFFF"></path>
		<path d="M99.3789 1.36816H93.7866V42.0399H99.3789V1.36816Z" fill="#FFFFFF"></path>
		<path d="M116.276 1.07715H77.3218V6.5758H116.276V1.07715Z" fill="#FFFFFF"></path>
		<path d="M151.04 18.7578H122.273V24.2565H151.04V18.7578Z" fill="#FFFFFF"></path>
		<path d="M153.28 42.6214H130.906C124.809 42.6214 121.715 40.0148 121.715 34.8716V8.44466C121.715 3.2853 124.596 0.323242 129.608 0.323242H153.083V5.8219H129.608C128.572 5.8219 128.107 6.02116 127.904 6.18811C127.526 6.4897 127.313 7.31369 127.313 8.44466V34.8716C127.313 35.464 127.373 36.2288 127.669 36.4873C127.827 36.6381 128.534 37.112 130.906 37.112H153.28V42.6214Z" fill="#FFFFFF"></path>
		<path d="M70.656 42.6213H46.0085C43.3301 42.6213 41.32 41.388 40.6353 39.32C39.8083 36.8426 41.183 33.8052 43.9929 31.7802C45.3567 30.7947 48.1665 29.012 51.42 26.9332C55.4019 24.4128 59.9151 21.5477 61.7938 20.1205C64.6475 17.9663 66.2249 16.7383 66.2249 10.9973C66.2649 10.3762 66.1296 9.75625 65.8338 9.20597C65.5381 8.6557 65.0934 8.19651 64.5489 7.87911C63.2343 7.03896 61.1256 6.5758 58.617 6.5758H44.1681V1.07715H58.6335C66.7781 1.07715 71.8336 4.87935 71.8336 10.9973C71.8336 18.8279 69.095 21.5207 65.2609 24.4612C63.1905 26.0392 58.7649 28.8397 54.4872 31.554C51.4419 33.482 48.5663 35.3239 47.3668 36.191C47.0032 36.4504 46.6818 36.7627 46.4138 37.1173H70.656V42.6213Z" fill="#FFFFFF"></path>
		<path d="M39.2715 44.0002L39.3968 43.844L39.2715 43.7417V44.0002Z" fill="#FFFFFF"></path>
		<path d="M37.1684 42.0345C29.1881 35.5449 16.5357 25.1508 14.1476 22.835C13.3479 22.0648 13.0522 21.5317 13.0522 21.2893C13.0522 21.047 13.3808 20.4223 14.2846 19.5875C16.3385 17.7025 31.4502 4.56179 35.098 1.37354H26.6959C20.8134 6.51674 12.0772 14.1158 10.4943 15.5699C8.48965 17.4063 7.50375 19.2482 7.48184 21.2139C7.45993 23.1797 8.35272 24.9407 10.2205 26.7557C12.4113 28.8614 21.6459 36.4928 28.4103 42.0345H37.1684Z" fill="#FFFFFF"></path>
		<path d="M195.34 42.8152H202C198.807 38.2859 190.832 26.9547 188.855 24.0142C187.458 21.9246 187.452 20.7452 188.827 18.7633C190.47 16.4313 200.154 1.95496 201.463 0H194.89C191.604 4.91163 185.508 14.0024 184.297 15.7258C181.674 19.4957 181.663 23.0771 184.297 26.9763C185.946 29.4536 191.582 37.4781 195.34 42.8152Z" fill="#FFFFFF"></path>
		<path d="M174.017 24.0142C172.051 26.9547 164.076 38.2859 160.872 42.8152H167.532C171.289 37.4781 176.925 29.4536 178.579 26.9763C181.187 23.0771 181.181 19.5011 178.552 15.7204C177.353 14.0024 171.262 4.91163 167.97 0H161.397C162.706 1.95496 172.412 16.4313 174.033 18.7633C175.419 20.7452 175.414 21.9246 174.017 24.0142Z" fill="#FFFFFF"></path>
		</svg>